{
	"asset":{
		"generator":"Khronos glTF Blender I/O v4.3.47",
		"version":"2.0"
	},
	"scene":0,
	"scenes":[
		{
			"name":"Scene",
			"nodes":[
				0,
				1
			]
		}
	],
	"nodes":[
		{
			"mesh":0,
			"name":"Cube.035",
			"rotation":[
				0.4724135100841522,
				-0.5261421203613281,
				0.5261422991752625,
				0.47241339087486267
			],
			"scale":[
				0.6345086693763733,
				0.6345086693763733,
				0.6345087885856628
			],
			"translation":[
				-0.37329697608947754,
				0.6010774970054626,
				-2.8049938678741455
			]
		},
		{
			"mesh":1,
			"name":"Cube.037",
			"rotation":[
				0.4744131863117218,
				-0.7354156970977783,
				0.417077898979187,
				0.2452385276556015
			],
			"scale":[
				0.6345086693763733,
				0.6345086693763733,
				0.6345088481903076
			],
			"translation":[
				-0.7928789258003235,
				-0.10490772128105164,
				-2.759629964828491
			]
		}
	],
	"materials":[
		{
			"doubleSided":true,
			"name":"Material.113",
			"pbrMetallicRoughness":{
				"baseColorFactor":[
					0.02867409959435463,
					0.02867409959435463,
					0.02867409959435463,
					1
				],
				"metallicFactor":0,
				"roughnessFactor":0.4215686321258545
			}
		}
	],
	"meshes":[
		{
			"name":"Cube.037",
			"primitives":[
				{
					"attributes":{
						"POSITION":0,
						"NORMAL":1
					},
					"indices":2,
					"material":0
				}
			]
		},
		{
			"name":"Cube.039",
			"primitives":[
				{
					"attributes":{
						"POSITION":3,
						"NORMAL":4
					},
					"indices":2,
					"material":0
				}
			]
		}
	],
	"accessors":[
		{
			"bufferView":0,
			"componentType":5126,
			"count":24,
			"max":[
				0.11459700018167496,
				0.10828500241041183,
				0.5723050236701965
			],
			"min":[
				-2.1541318893432617,
				0.055132001638412476,
				-0.2307949960231781
			],
			"type":"VEC3"
		},
		{
			"bufferView":1,
			"componentType":5126,
			"count":24,
			"type":"VEC3"
		},
		{
			"bufferView":2,
			"componentType":5123,
			"count":36,
			"type":"SCALAR"
		},
		{
			"bufferView":3,
			"componentType":5126,
			"count":24,
			"max":[
				0.13088999688625336,
				0.10828500241041183,
				-0.07569299638271332
			],
			"min":[
				-2.188750982284546,
				0.055132001638412476,
				-0.503400981426239
			],
			"type":"VEC3"
		},
		{
			"bufferView":4,
			"componentType":5126,
			"count":24,
			"type":"VEC3"
		}
	],
	"bufferViews":[
		{
			"buffer":0,
			"byteLength":288,
			"byteOffset":0,
			"target":34962
		},
		{
			"buffer":0,
			"byteLength":288,
			"byteOffset":288,
			"target":34962
		},
		{
			"buffer":0,
			"byteLength":72,
			"byteOffset":576,
			"target":34963
		},
		{
			"buffer":0,
			"byteLength":288,
			"byteOffset":648,
			"target":34962
		},
		{
			"buffer":0,
			"byteLength":288,
			"byteOffset":936,
			"target":34962
		}
	],
	"buffers":[
		{
			"byteLength":1224,
			"uri":"1.bin"
		}
	]
}
