{
	"asset":{
		"generator":"Khronos glTF Blender I/O v4.3.47",
		"version":"2.0"
	},
	"scene":0,
	"scenes":[
		{
			"name":"Scene",
			"nodes":[
				0,
				1
			]
		}
	],
	"nodes":[
		{
			"mesh":0,
			"name":"Cube.035",
			"rotation":[
				0.8192319869995117,
				0,
				-0.5734623074531555,
				0
			],
			"scale":[
				0.6345086097717285,
				0.6345086097717285,
				0.6345087289810181
			],
			"translation":[
				-0.9837326407432556,
				0.3954809010028839,
				-5.752779483795166
			]
		},
		{
			"mesh":1,
			"name":"Cube.066",
			"rotation":[
				0.8192319869995117,
				0,
				-0.5734623074531555,
				0
			],
			"scale":[
				0.6345086097717285,
				0.6345086097717285,
				0.6345087289810181
			],
			"translation":[
				-1.1962436437606812,
				0.3954809010028839,
				-6.046038627624512
			]
		}
	],
	"materials":[
		{
			"doubleSided":true,
			"name":"Material.113",
			"pbrMetallicRoughness":{
				"baseColorFactor":[
					0.02867409959435463,
					0.02867409959435463,
					0.02867409959435463,
					1
				],
				"metallicFactor":0,
				"roughnessFactor":0.4215686321258545
			}
		},
		{
			"doubleSided":true,
			"name":"Material.002",
			"pbrMetallicRoughness":{
				"baseColorFactor":[
					0.02867409959435463,
					0.02867409959435463,
					0.02867409959435463,
					1
				],
				"metallicFactor":0,
				"roughnessFactor":0.4215686321258545
			}
		}
	],
	"meshes":[
		{
			"name":"Cube.037",
			"primitives":[
				{
					"attributes":{
						"POSITION":0,
						"NORMAL":1
					},
					"indices":2,
					"material":0
				}
			]
		},
		{
			"name":"Cube.002",
			"primitives":[
				{
					"attributes":{
						"POSITION":3,
						"NORMAL":4
					},
					"indices":2,
					"material":1
				}
			]
		}
	],
	"accessors":[
		{
			"bufferView":0,
			"componentType":5126,
			"count":24,
			"max":[
				0.11459700018167496,
				0.10828500241041183,
				0.5723050236701965
			],
			"min":[
				-2.1541318893432617,
				0.055132001638412476,
				-0.2307949960231781
			],
			"type":"VEC3"
		},
		{
			"bufferView":1,
			"componentType":5126,
			"count":24,
			"type":"VEC3"
		},
		{
			"bufferView":2,
			"componentType":5123,
			"count":36,
			"type":"SCALAR"
		},
		{
			"bufferView":3,
			"componentType":5126,
			"count":24,
			"max":[
				0.11459700018167496,
				0.10828500241041183,
				0.5723050236701965
			],
			"min":[
				-2.1541318893432617,
				0.055132001638412476,
				-0.2307949960231781
			],
			"type":"VEC3"
		},
		{
			"bufferView":4,
			"componentType":5126,
			"count":24,
			"type":"VEC3"
		}
	],
	"bufferViews":[
		{
			"buffer":0,
			"byteLength":288,
			"byteOffset":0,
			"target":34962
		},
		{
			"buffer":0,
			"byteLength":288,
			"byteOffset":288,
			"target":34962
		},
		{
			"buffer":0,
			"byteLength":72,
			"byteOffset":576,
			"target":34963
		},
		{
			"buffer":0,
			"byteLength":288,
			"byteOffset":648,
			"target":34962
		},
		{
			"buffer":0,
			"byteLength":288,
			"byteOffset":936,
			"target":34962
		}
	],
	"buffers":[
		{
			"byteLength":1224,
			"uri":"2.bin"
		}
	]
}
